# xmcd CD database file
# Copyright (C) 1995 Ti Kan
#
# Track frame offsets:
#	150
#	16927
#	36195
#	59735
#	75422
#	92752
#	105860
#	124317
#	141740
#	156025
#	165422
#
# Disc length: 2549 seconds
#
# Revision: 3
# Processed by: cddbd v1.4PL0 Copyright (c) Steve Scherf et al.
# Submitted via: Gronk 1.4
#
DISCID=8809f30b
DTITLE=Kieran Kelly - 11 Blues and Greens
DYEAR=1900
DGENRE=blues
TTITLE0=Rain On Tuesday
TTITLE1=Empty
TTITLE2=Sandy Song
TTITLE3=Sorry For My World
TTITLE4=Great Decline, The
TTITLE5=This Is Your Time
TTITLE6=No Cash Value
TTITLE7=Wonderful
TTITLE8=4 Eyes
TTITLE9=Blue Period, The
TTITLE10=Tomorrow Today
EXTD=
EXTT0=
EXTT1=
EXTT2=
EXTT3=
EXTT4=
EXTT5=
EXTT6=
EXTT7=
EXTT8=
EXTT9=
EXTT10=
PLAYORDER=
